<svg xmlns="http://www.w3.org/2000/svg" width="60" height="60" fill="none" viewBox="0 0 60 60"><path fill="#2C2E47" fill-rule="evenodd" d="M20.7016 28.691C20.7016 23.3388 24.8646 19 30 19C35.1354 19 39.2984 23.3388 39.2984 28.691V30.1005C39.2984 31.8611 39.6917 33.5974 40.4471 35.1721L40.7905 35.8878C41.3081 36.9668 40.8304 38.2764 39.7557 38.7244L37.7149 39.5752C37.6088 39.6194 37.5022 39.6627 37.3956 39.7051C36.8573 39.1591 36.1028 38.6805 35.1911 38.2998C35.7948 38.119 36.392 37.906 36.9801 37.6607L39.0209 36.81L38.6776 36.0943C37.9345 34.5452 37.4879 32.8638 37.359 31.1436C37.3337 31.0523 37.32 30.9558 37.32 30.856V30.1005V28.691C37.32 24.4776 34.0427 21.0619 30 21.0619C25.9573 21.0619 22.68 24.4776 22.68 28.691V30.1005V30.1041V30.856C22.68 30.9558 22.6663 31.0523 22.641 31.1436C22.5121 32.8638 22.0655 34.5452 21.3223 36.0943L20.9791 36.81L23.0199 37.6607C23.608 37.906 24.2052 38.119 24.8089 38.2998C23.8972 38.6805 23.1427 39.1591 22.6044 39.7051C22.4977 39.6627 22.3912 39.6194 22.2851 39.5752L20.2443 38.7244C19.1696 38.2764 18.6919 36.9668 19.2095 35.8878L19.5528 35.1721C20.3078 33.5984 20.7011 31.8632 20.7016 30.1038V28.691ZM29.2581 24.361C29.2581 23.9339 29.5903 23.5877 30 23.5877C30.4097 23.5877 30.7419 23.9339 30.7419 24.361C30.7419 26.9232 32.7348 29.0003 35.1933 29.0003C35.603 29.0003 35.9351 29.3465 35.9351 29.7735V30.856C35.9351 34.2723 33.2779 37.0417 30 37.0417C26.7221 37.0417 24.0648 34.2723 24.0648 30.856V29.7744V29.7735C24.0648 29.3465 24.397 29.0003 24.8067 29.0003C27.2652 29.0003 29.2581 26.9232 29.2581 24.361ZM30 27.358C29.1013 29.0458 27.4672 30.2495 25.5486 30.4989V30.856C25.5486 33.4182 27.5416 35.4953 30 35.4953C32.4584 35.4953 34.4514 33.4182 34.4514 30.856V30.4989C32.5328 30.2495 30.8987 29.0458 30 27.358ZM22.42 43.676C24.1091 41.8072 26.8505 40.547 30 40.547C33.1495 40.547 35.8909 41.8072 37.58 43.676C37.9546 44.0904 38.5806 44.1099 38.9783 43.7195C39.3759 43.329 39.3946 42.6765 39.02 42.2621C36.918 39.9366 33.6348 38.4851 30 38.4851C26.3651 38.4851 23.082 39.9366 20.98 42.2621C20.6054 42.6765 20.624 43.329 21.0217 43.7195C21.4194 44.1099 22.0454 44.0904 22.42 43.676Z" clip-rule="evenodd"/><path fill="#2C2E47" d="M37 11.5H18C15.5147 11.5 13.5 13.5147 13.5 16V44C13.5 46.4853 15.5147 48.5 18 48.5H42C44.4853 48.5 46.5 46.4853 46.5 44V18L43.5 21.5V44C43.5 44.8284 42.8284 45.5 42 45.5H18C17.1716 45.5 16.5 44.8284 16.5 44V16C16.5 15.1716 17.1716 14.5 18 14.5H34L37 11.5Z"/><path fill="#2C2E47" fill-rule="evenodd" d="M41.9027 11.6099L37.8287 15.6824C37.3619 16.0942 37.055 16.7073 37.0019 17.366L37 19.3751C37 19.7202 37.2798 20 37.6249 20H39.5843C40.2925 19.9513 40.9118 19.6419 41.3487 19.1389L45.3911 15.0983L41.9027 11.6099ZM46.0984 14.3914L46.5493 13.9408C46.6922 13.7979 46.8055 13.6283 46.8829 13.4416C46.9602 13.2549 47 13.0548 47 12.8528C47 12.6507 46.9602 12.4506 46.8829 12.2639C46.8055 12.0773 46.6922 11.9077 46.5493 11.7648L45.2361 10.4518C44.9499 10.1631 44.5574 10 44.148 10C43.9459 10.0002 43.7451 10.0403 43.5585 10.1181C43.3718 10.1958 43.2024 10.3097 43.0599 10.4531L42.6099 10.9029L46.0984 14.3914Z" clip-rule="evenodd"/></svg>