<svg width="60" height="60" viewBox="0 0 60 60" fill="none" xmlns="http://www.w3.org/2000/svg">
<circle cx="36.5" cy="14.5" r="1.5" fill="#2C2E47"/>
<circle cx="41.5" cy="17.5" r="1.5" fill="#2C2E47"/>
<circle cx="45.5" cy="36.5" r="1.5" fill="#2C2E47"/>
<circle cx="45.5" cy="22.5" r="1.5" fill="#2C2E47"/>
<circle cx="45.5" cy="29.5" r="1.5" fill="#2C2E47"/>
<circle cx="41.5" cy="41.5" r="1.5" fill="#2C2E47"/>
<circle cx="36.5" cy="44.5" r="1.5" fill="#2C2E47"/>
<path d="M24.5 16.866C25.4282 16.3301 26.5718 16.3301 27.5 16.866L36.6244 22.134C37.5526 22.6699 38.1244 23.6603 38.1244 24.7321V35.2679C38.1244 36.3397 37.5526 37.3301 36.6244 37.866L27.5 43.134C26.5718 43.6699 25.4282 43.6699 24.5 43.134L15.3756 37.866C14.4474 37.3301 13.8756 36.3397 13.8756 35.2679V24.7321C13.8756 23.6603 14.4474 22.6699 15.3756 22.134L24.5 16.866Z" stroke="#2C2E47" stroke-width="3"/>
</svg>
