<svg width="60" height="60" viewBox="0 0 60 60" fill="none" xmlns="http://www.w3.org/2000/svg">
<path fill-rule="evenodd" clip-rule="evenodd" d="M43.5 27.5316V31.7355L42.0253 30.2608C39.8578 28.0935 36.3438 28.0935 34.1764 30.2608L33.3753 31.062L29.8744 27.5611C27.7069 25.3938 24.1929 25.3938 22.0255 27.5611L16.5 33.0867V18C16.5 17.1716 17.1716 16.5 18 16.5H32.4684L33.2289 16.084C34.5342 15.3701 35.7393 14.5008 36.8204 13.5H18C15.5147 13.5 13.5 15.5147 13.5 18V42C13.5 44.4854 15.5147 46.5 18 46.5H42C44.4854 46.5 46.5 44.4854 46.5 42V23.1796C45.4992 24.2605 44.63 25.4657 43.916 26.7711L43.5 27.5316ZM16.5 37.2661C16.6032 37.2041 16.7006 37.1286 16.7896 37.0396L24.1468 29.6826C25.1427 28.6867 26.7573 28.6867 27.7531 29.6826L37.1352 39.0646C37.7211 39.6504 38.6707 39.6504 39.2565 39.0646C39.8424 38.4789 39.8424 37.5291 39.2565 36.9433L35.4966 33.1834L36.2977 32.3823C37.2936 31.3864 38.9082 31.3864 39.9039 32.3823L43.5 35.9782V42C43.5 42.8284 42.8284 43.5 42 43.5H18C17.1716 43.5 16.5 42.8284 16.5 42V37.2661Z" fill="#2C2E47"/>
<path fill-rule="evenodd" clip-rule="evenodd" d="M36.75 17.85C39.0293 16.6034 40.9034 14.7293 42.15 12.45C43.3967 14.7293 45.2706 16.6034 47.55 17.85C45.2706 19.0967 43.3967 20.9706 42.15 23.25C40.9034 20.9706 39.0293 19.0967 36.75 17.85Z" fill="#2C2E47"/>
</svg>
