<svg xmlns="http://www.w3.org/2000/svg" width="60" height="60" class="icon" version="1.1" viewBox="0 0 1024 1024"><path fill="#2C2E47" d="M307.2 230.4a76.8 76.8 0 0 0-76.8 76.8v102.4a76.8 76.8 0 0 0 76.8 76.8h409.6a76.8 76.8 0 0 0 76.8-76.8v-102.4a76.8 76.8 0 0 0-76.8-76.8H307.2zM281.6 307.2a25.6 25.6 0 0 1 25.6-25.6h409.6a25.6 25.6 0 0 1 25.6 25.6v102.4a25.6 25.6 0 0 1-25.6 25.6H307.2a25.6 25.6 0 0 1-25.6-25.6v-102.4zM307.2 520.533333a76.8 76.8 0 0 0-76.8 76.8v119.466667a76.8 76.8 0 0 0 76.8 76.8h68.266667a76.8 76.8 0 0 0 76.8-76.8v-119.466667a76.8 76.8 0 0 0-76.8-76.8h-68.266667zM281.6 597.333333a25.6 25.6 0 0 1 25.6-25.6h68.266667a25.6 25.6 0 0 1 25.6 25.6v119.466667a25.6 25.6 0 0 1-25.6 25.6h-68.266667a25.6 25.6 0 0 1-25.6-25.6v-119.466667zM563.2 520.533333a76.8 76.8 0 0 0-76.8 76.8v119.466667a76.8 76.8 0 0 0 76.8 76.8h153.6a76.8 76.8 0 0 0 76.8-76.8v-119.466667a76.8 76.8 0 0 0-76.8-76.8h-153.6z"/></svg>